# File created by Blade
# Date/Time:  Tue Jan 27 19:05:02 2015
# Frame Rate: 120.000 fps
#------------------------------------------------------
:FULLY-SPECIFIED
:DEGREES
2337
root -2.136120 31.491323 -4.557596 6.387170 -34.770579 -6.581012
Spine -0.577493 9.425494 0.328293
Head 14.116125 -11.277332 1.207958
LeftShoulder -20.502146 22.416631 13.149408
LeftArm -2.902016 -54.362219 -67.727390
LeftForeArm -11.388477 -0.000000 96.010636
LeftHand -11.314303 -0.000000 25.002383
LeftHandThumb1 -26.253704 0.000000 33.147579
RightShoulder -4.192232 9.398439 -6.051266
RightArm 19.602754 -33.607642 77.429023
RightForeArm -20.245129 0.000000 20.921516
RightHand -14.212142 -0.000000 7.402797
RightHandThumb1 -24.326973 -0.000000 -32.862282
LeftUpLeg -7.789187 11.874376 -7.074323
LeftLeg 18.590028 -0.000000 -0.000000
LeftFoot -34.008722 34.472752 -21.096658
LeftToeBase 10.393446 -0.000000 -0.000000
RightUpLeg -22.849854 -64.997159 -0.253413
RightLeg 94.616185 -0.000000 -0.000000
RightFoot -8.399670 -13.797372 26.041073
RightToeBase 0.529868 -0.000000 -0.000000
2338
root -2.130849 31.491872 -4.559175 6.416158 -34.887534 -6.540537
Spine -0.618106 9.638144 0.278000
Head 14.109125 -10.538597 1.273007
LeftShoulder -20.450199 22.412974 13.155320
LeftArm -2.825074 -54.397802 -67.916227
LeftForeArm -11.296904 0.000000 96.138640
LeftHand -11.285399 -0.000000 24.902076
LeftHandThumb1 -26.253704 0.000000 33.147579
RightShoulder -3.918933 9.416543 -5.866214
RightArm 19.791125 -34.260855 77.597866
RightForeArm -20.735325 -0.000000 20.828426
RightHand -14.237241 -0.000000 7.688361
RightHandThumb1 -24.326973 -0.000000 -32.862282
LeftUpLeg -7.813766 11.974877 -7.141047
LeftLeg 18.501654 -0.000000 -0.000000
LeftFoot -33.987387 34.518825 -21.101379
LeftToeBase 10.406164 -0.000000 -0.000000
RightUpLeg -22.550558 -65.452183 -0.497788
RightLeg 94.344292 -0.000000 -0.000000
RightFoot -8.675568 -15.108174 25.626281
RightToeBase -0.790316 -0.000000 0.000000
2339
root -2.128478 31.492007 -4.560933 6.414707 -35.012748 -6.516986
Spine -0.615527 9.863812 0.242006
Head 14.113828 -9.714363 1.333493
LeftShoulder -20.353423 22.370316 13.212358
LeftArm -2.839568 -54.471297 -68.083717
LeftForeArm -11.205041 -0.000000 96.269172
LeftHand -11.206871 -0.000000 24.862491
LeftHandThumb1 -26.253704 0.000000 33.147579
RightShoulder -3.637368 9.447357 -5.678856
RightArm 20.022447 -35.003178 77.707258
RightForeArm -21.329917 -0.000000 20.650468
RightHand -14.200892 -0.000000 7.831743
RightHandThumb1 -24.326973 -0.000000 -32.862282
LeftUpLeg -7.789847 12.080661 -7.179722
LeftLeg 18.411591 -0.000000 -0.000000
LeftFoot -33.966570 34.552181 -21.094793
LeftToeBase 10.433925 -0.000000 -0.000000
RightUpLeg -22.131075 -65.841995 -0.840450
RightLeg 94.099781 -0.000000 -0.000000
RightFoot -9.177426 -16.043937 26.014941
RightToeBase -0.865405 -0.000000 0.000000
2340
root -2.129879 31.492156 -4.565555 6.424403 -35.134777 -6.560153
Spine -0.571306 10.086757 0.282874
Head 14.143569 -8.866485 1.360583
LeftShoulder -20.259345 22.314378 13.260330
LeftArm -2.838851 -54.564326 -68.272524
LeftForeArm -11.107663 -0.000000 96.378908
LeftHand -11.140700 -0.000000 24.837000
LeftHandThumb1 -26.253704 0.000000 33.147579
RightShoulder -3.359658 9.448126 -5.515969
RightArm 20.316793 -35.749674 77.807292
RightForeArm -21.940905 -0.000000 20.419338
RightHand -14.095258 0.000000 8.182740
RightHandThumb1 -24.326973 -0.000000 -32.862282
LeftUpLeg -7.768517 12.209702 -7.145670
LeftLeg 18.402895 -0.000000 -0.000000
LeftFoot -33.966285 34.580990 -21.025301
LeftToeBase 10.462982 -0.000000 -0.000000
RightUpLeg -21.648544 -66.200139 -1.155539
RightLeg 93.840675 -0.000000 -0.000000
RightFoot -9.699043 -16.839335 26.673714
RightToeBase -0.696112 -0.000000 0.000000
2341
root -2.121673 31.489970 -4.565443 6.372214 -35.280279 -6.496050
Spine -0.528063 10.311356 0.247721
Head 14.201022 -7.935711 1.362213
LeftShoulder -20.157072 22.239717 13.322387
LeftArm -2.916739 -54.643724 -68.408836
LeftForeArm -11.032245 -0.000000 96.494087
LeftHand -11.081862 -0.000000 24.804398
LeftHandThumb1 -26.253704 0.000000 33.147579
RightShoulder -3.143286 9.481893 -5.381457
RightArm 20.718637 -36.786509 77.790474
RightForeArm -22.125977 -0.000000 20.102480
RightHand -14.198751 -0.000000 8.350746
RightHandThumb1 -24.326973 -0.000000 -32.862282
LeftUpLeg -7.680063 12.278828 -7.226920
LeftLeg 18.215890 -0.000000 -0.000000
LeftFoot -34.028119 34.587306 -21.165681
LeftToeBase 10.549043 -0.000000 -0.000000
RightUpLeg -21.259258 -66.473412 -1.527509
RightLeg 93.631403 -0.000000 -0.000000
RightFoot -9.782939 -17.658267 26.756392
RightToeBase -1.116502 -0.000000 0.000000
2342
root -2.113384 31.489330 -4.567015 6.344140 -35.442911 -6.453366
Spine -0.491765 10.546916 0.248438
Head 14.295316 -6.920461 1.332416
LeftShoulder -20.057712 22.180886 13.346071
LeftArm -2.963578 -54.749015 -68.545631
LeftForeArm -10.946093 -0.000000 96.575333
LeftHand -11.053288 -0.000000 24.700076
LeftHandThumb1 -26.253704 0.000000 33.147579
RightShoulder -2.901533 9.520648 -5.266162
RightArm 21.112744 -37.812633 77.769865
RightForeArm -22.553414 -0.000000 19.748843
RightHand -14.062635 -0.000000 8.527449
RightHandThumb1 -24.326973 -0.000000 -32.862282
LeftUpLeg -7.622108 12.292573 -7.276580
LeftLeg 18.100147 -0.000000 -0.000000
LeftFoot -33.976060 34.689596 -21.134523
LeftToeBase 10.496892 -0.000000 -0.000000
RightUpLeg -20.947970 -66.684319 -1.804670
RightLeg 93.428893 -0.000000 -0.000000
RightFoot -9.782702 -18.338773 26.798479
RightToeBase -1.381422 -0.000000 0.000000
